<svg width="580" height="400" xmlns="http://www.w3.org/2000/svg">
 <!-- Created with Method Draw - http://github.com/duopixel/Method-Draw/ -->
 <g>
  <title>background</title>
  <rect fill="#fff" id="canvas_background" height="402" width="582" y="-1" x="-1"/>
  <g display="none" overflow="visible" y="0" x="0" height="100%" width="100%" id="canvasGrid">
   <rect fill="url(#gridpattern)" stroke-width="0" y="0" x="0" height="100%" width="100%"/>
  </g>
 </g>
 <g>
  <title>Layer 1</title>
  <path d="m125.5,130.983337c0,0 0,0 0,0c0,-1 -1,-1 -1,-1c-1,0 -1,0 -2,0c-1,0 -3,0 -5,0c-2,0 -4,0 -6,0c-1,0 -3,0 -6,0c-2,0 -2.693436,0.458801 -4,1c-0.923882,0.38269 -2,0 -3,1c0,0 -1.292892,0.292892 -2,1c-0.707108,0.707108 -1.458801,0.693436 -2,2c-0.382683,0.923874 -0.617317,1.076126 -1,2c-0.541199,1.306564 -1.458801,1.693436 -2,3c-0.382683,0.923874 0,2 0,3c0,1 0.486259,1.823746 1,4c0.229752,0.973251 1.486259,1.823746 2,4c0.459503,1.946503 0.097885,3.824432 2,5c0.850655,0.525726 2,1 3,2c1,1 2,2 4,3c2,1 2.934143,1.144287 5,2c2.921562,1.210144 5.080254,1.310745 8,2c2.176254,0.513748 3.823746,1.486252 6,2c0.973251,0.229752 1.823746,1.486252 4,2c0.973251,0.229752 1.693436,1.458801 3,2c0.923874,0.38269 1.149353,0.474274 2,1c1.902115,1.175568 1.173096,2.852737 2,4c1.307449,1.813995 1.679642,4.025818 2,6c0.506546,3.121445 0.519455,4.038742 1,7c0.506546,3.121445 1,5 1,7c0,2 0,4 0,6c0,2 0,3 0,4c0,1 -0.61731,2.076126 -1,3c-0.541199,1.306564 -1.458801,1.693436 -2,3c-0.38269,0.923874 -0.852737,2.173096 -2,3c-1.813995,1.307449 -3.053497,0.540497 -5,1c-2.176254,0.513748 -4.823746,1.486252 -7,2c-2.919746,0.689255 -6,0 -8,0c-4,0 -5.025826,0.320358 -7,0c-3.121445,-0.506546 -4.85273,-1.173096 -6,-2c-1.813995,-1.307449 -3,-1 -4,-2c0,0 0,-1 0,-1l0,0l1,0" id="svg_1" stroke-width="1.5" stroke="#000" fill="none"/>
  <path d="m169.5,182.983337c1,0 1,0 2,0c1,0 3,0 5,0c1,0 4,0 7,0c2,0 5.823746,-0.486252 8,-1c0.973251,-0.229752 2.823746,-1.486252 5,-2c0.973251,-0.229752 1.292892,-1.292892 2,-2c0.707108,-0.707108 1,-1 1,-2c0,-1 -1,-2 -1,-3c0,-1 -0.486252,-1.823746 -1,-4c-0.229752,-0.973251 -1,-2 -2,-3c-1,-1 -2,-1 -4,-2c-2,-1 -3.878555,-1.493454 -7,-2c-0.987091,-0.160187 -3,0 -5,0c-1,0 -2.186005,0.692551 -4,2c-1.147263,0.826904 -1.692551,1.186005 -3,3c-0.826904,1.147263 -2,2 -3,4c-1,2 -1.789856,3.07843 -3,6c-0.855713,2.065857 -2.190277,3.881516 -4,7c-1.122345,1.93399 -1,4 -1,7c0,2 -1.148056,3.228363 0,6c0.541199,1.306564 1,3 3,5c2,2 3.21167,2.714127 6,5c2.187347,1.793198 4.761078,3.415894 8,5c2.840729,1.389359 4,1 8,1c2,0 4,0 7,0c2,0 3,0 4,0l1,0l0,0l0,0" id="svg_2" stroke-width="1.5" stroke="#000" fill="none"/>
  <path d="m223.5,167.983337c0,1 -0.292892,0.292892 -1,1c-0.707108,0.707108 -0.173096,1.852737 -1,3c-1.307449,1.813995 -1.540497,4.053497 -2,6c-1.027481,4.352509 -2.11586,5.963837 -3,9c-1.152771,3.958679 -1.24437,6.014984 -1,8c0.503769,4.092209 0.692551,6.186005 2,8c1.653809,2.29454 3,4 4,5c2,2 2.934143,3.144287 5,4c2.92157,1.210144 4,1 6,1c3,0 6,0 8,0c3,0 6,-1 8,-2c2,-1 5.149353,-1.474274 6,-2c1.9021,-1.175568 2,-2 3,-4c1,-2 1.486267,-2.823746 2,-5c0.68927,-2.919754 1,-4 1,-7c0,-3 0.459503,-5.053497 0,-7c-0.513733,-2.176254 -1,-4 -2,-6c-1,-2 -2,-4 -3,-5c-2,-2 -3.852737,-3.173096 -5,-4c-1.813995,-1.307449 -2.693436,-2.458801 -4,-3c-2.771637,-1.148056 -5,-1 -6,-1c-1,0 -2,0 -3,0c-1,0 -2,1 -2,1c-1,0 -2,1 -2,1c-1,1 -2,2 -2,2l0,1l0,1l0,0" id="svg_3" stroke-width="1.5" stroke="#000" fill="none"/>
  <path d="m275.5,165.983337c0,0 1,1 1,2c0,1 0,3 0,6c0,2 -0.152771,5.041321 1,9c0.884125,3.036163 0.569519,6.132996 2,10c0.775787,2.097168 2,4 3,6c1,2 2.21167,3.714127 5,6c1.093658,0.896591 2,2 4,2c2,0 4,0 7,0c2,0 4,0 9,0c3,0 5,0 10,0c2,0 3.152252,-0.234634 5,-1c1.306549,-0.541199 1,-1 1,-2c0,-1 1,-3 1,-5c0,-1 -0.459503,-3.053497 0,-5c0.513733,-2.176254 1.486267,-2.823746 2,-5c0.229767,-0.973251 0,-2 1,-2l0,0l0,0" id="svg_4" stroke-width="1.5" stroke="#000" fill="none"/>
  <path d="m326.5,164.983337c0,1 0,1 0,1c0,1 0,1 -1,2c0,0 0,0 0,1c0,0 0,1 0,2c0,0 0,1 0,2c0,0 -0.707092,1.292892 0,2c0.707092,0.707108 1,1 1,2c0,0 0,1 0,1c0,1 0,1 0,2c0,0 0,1 0,2c0,0 0,1 0,1c0,0 0,1 0,1c0,1 0,1 0,2c0,1 0,1 0,2c0,0 0,1 0,1c0,1 0,1 0,2c0,0 0,0 0,1c0,0 0,0 0,1c0,1 0,1 0,1c0,1 0,1 0,1c0,1 0,1 0,1c0,1 0.458801,0.693436 1,2c0.38269,0.923874 0,1 0,2c0,0 -0.707092,1.292892 0,2c0.707092,0.707108 1,1 1,1c0,1 0.292908,0.292892 1,1c0.707092,0.707108 0,1 0,1c0,1 -0.707092,1.292892 0,2c0.707092,0.707108 1,1 1,1c0,0 0,1 0,1c1,0 1,1 1,1c0,0 0.292908,0.292892 1,1c0.707092,0.707108 1,0 2,0c1,0 2,0 2,0c2,1 4,1 5,1c2,0 4,0 4,0c1,0 1,0 1,-1l0,0l0,0" id="svg_5" fill-opacity="null" stroke-opacity="null" stroke-width="1.5" stroke="#000" fill="none"/>
  <path d="m361.5,119.983337c0,0 0,1 1,2c0,0 0,1 0,3c0,0 0,2 0,2c0,1 0,2 0,3c0,1 0,2 0,3c0,1 0,3 0,4c0,1 0,3 0,4c0,1 0,2 0,3c0,1 0,2 0,2c0,2 0,3 0,3c0,2 0,3 0,4c0,1 0,3 0,4c0,1 0,3 0,4c0,0 1,2 1,3c0,0 0,2 0,2c1,1 1,2 1,3c0,0 0,2 0,2c1,1 1,2 1,3c0,1 0.458801,1.693436 1,3c0.38269,0.923874 0,1 0,2c0,1 0,1 0,2c0,0 0,1 0,2c0,0 1,2 1,2c0,1 -0.38269,2.076126 0,3c0.541199,1.306564 1,2 1,2c0,1 0,2 0,3c0,0 0,1 0,2c0,0 0,1 1,2c0,0 0,1 0,1c0,0 0,1 0,1c0,0 0,1 0,1c0,0 0,0 0,1c0,0 0,0 0,0c0,1 0.486267,1.823746 1,4c0.459503,1.946503 -0.414215,3.585785 1,5c0.707092,0.707108 1,1 1,2l0,0l0,0" id="svg_6" fill-opacity="null" stroke-opacity="null" stroke-width="1.5" stroke="#000" fill="none"/>
  <polyline stroke-linecap="round" id="svg_7" points="631.5,-40.01666259765625 630.5,-41.01666259765625 630.5,-41.01666259765625 " fill-opacity="null" stroke-opacity="null" stroke-width="1.5" stroke="#000" fill="none"/>
 </g>
</svg>