<svg width="580" height="400" xmlns="http://www.w3.org/2000/svg">
 <!-- Created with Method Draw - http://github.com/duopixel/Method-Draw/ -->
 <g>
  <title>background</title>
  <rect fill="#fff" id="canvas_background" height="402" width="582" y="-1" x="-1"/>
 </g>
 <g>
  <title>Layer 1</title>
  <path d="m11.5,337.983337c0,0 1,0 1,0c0,0 0,0 0,0c0,0 1,0 1,0c0,0 1,0 1,1c0,0 0,0 1,0c0,0 0,0 1,0c1,0 1,0 2,1c0,0 1,0 2,0c0,0 1,0 1,0c0,0 1,0 1,0c0,0 1,0 1,1c0,0 0,0 1,0c0,0 1,0 2,0c0,0 1,1 2,1c1,0 1,0 2,0c0,0 1,0 1,0c1,0 1,0 2,0c0,0 1,0 2,0c0,0 1,0 2,0c1,0 1,0 2,0c0,0 0,-1 1,-1c0,0 0,0 0,0c0,-1 0,-1 1,-2c0,0 1.458805,-0.693451 2,-2c0.382683,-0.923889 0.292892,-1.292908 1,-2c0.707108,-0.707092 0.458805,-1.693451 1,-3c0.765366,-1.847748 0,-3 0,-5c0,-2 1,-4 1,-8c0,-3 0,-7 0,-14c0,-4 -0.498737,-7.946716 -1,-15c-0.354446,-4.987427 0,-10 0,-18c0,-5 0,-11 0,-20c0,-6 0,-12 0,-23c0,-8 0.718555,-15.029221 2,-26c0.820362,-7.023315 2.094101,-13.224731 5,-23c1.534485,-5.161911 2.645042,-10.111298 5,-17c1.741985,-5.095642 3.116894,-9.967651 5,-17c1.066502,-3.982788 1.569504,-7.132996 3,-11c0.775795,-2.097168 1,-4 2,-5c0,0 0,0 0,0c0,1 -0.617317,2.076126 -1,3c-0.541199,1.306564 -1.27346,2.922318 -2,6c-1.624599,6.881912 -1.75256,11.010223 -2,14c-0.501709,6.062042 -1.806164,10.030441 -3,17c-0.860886,5.025818 -1.498737,8.946716 -2,16c-0.283558,3.989944 -1,9 -1,14c0,8 0.497555,11.925797 1,17c0.985374,9.95134 1.163826,15.974991 2,22c1.244808,8.969421 1.497555,12.925797 2,18c0.689762,6.965942 0.139114,11.974182 1,17c1.193836,6.969574 0.75145,11.007721 1,15c0.500969,8.046692 1,12 1,16c0,5 0,7 0,8c0,1 0,2 0,2c0,0 0,-1 1,-1c1,0 2,-1 4,-1c2,0 5.025826,-0.320374 7,0c3.121445,0.506531 6,1 8,2c2,1 4,2 5,2c1,0 2.693436,1.458801 4,2c0.923882,0.38269 3,1 4,1c1,0 3,0 4,0c1,0 2.292892,0.707092 3,0c0.707108,-0.707092 1,-1 2,-1c0,0 0.693436,-1.458801 2,-2c0.923882,-0.38269 1.617317,-1.076111 2,-2c0.541199,-1.306549 2.458801,-2.693451 3,-4c0.382683,-0.923889 0.692551,-2.186005 2,-4c0.826904,-1.147278 1.458801,-1.693451 2,-3c0.382683,-0.923889 0.458801,-3.693451 1,-5c0.382683,-0.923889 0.160179,-5.012909 0,-6c-0.506538,-3.121429 -1.115868,-6.963837 -2,-10c-1.152771,-3.958679 -2.496223,-8.907776 -3,-13c-0.488731,-3.970032 -0.587601,-12.017029 -1,-17c-0.501709,-6.062042 -2.918686,-16.0121 -4,-23c-0.930176,-6.011215 -2,-18 -3,-25c-1,-7 -2,-17 -2,-24c0,-7 0,-14 0,-23c0,-7 -0.389259,-12.051819 1,-21c0.78228,-5.038651 2.372574,-9.303604 6,-16c1.717339,-3.170288 3.385094,-6.372017 6,-10c1.653809,-2.29454 3.679466,-3.571106 6,-8c1.467636,-2.801079 2.296997,-5.613838 5,-8c1.676331,-1.479836 3,-3 4,-4c1,-1 1.692551,-2.186005 3,-4c0.826904,-1.14727 1,-2 2,-3c1,-1 1,-2 1,-2c0,0 1,0 2,1c1,1 6.222733,3.723991 10,7c4.273499,3.706383 13.195572,11.811798 18,17c6.264221,6.764587 16,17 22,24c6,7 15.900238,17.319351 21,25c3.710617,5.588501 9.130814,15.957962 11,22c2.151596,6.954895 3.565033,16.013519 4,23c0.500961,8.046677 1.689758,18.034073 1,25c-0.502441,5.074203 -1,12 -1,17c0,5 0,13 0,18c0,6 0,12 0,15c0,3 0,5 0,6c0,1 0,2 0,2c0,0 0,0 0,1c0,0 0,0 2,0c2,0 6,0 10,0c4,0 8,0 16,0c5,0 9,0 15,0c4,0 7,0 10,0c1,0 3,0 5,0c0,0 1.292908,0.707092 2,0c0.707092,-0.707092 0,-1 0,-1c0,0 0,-1 0,-2c0,0 0,-1 0,-2c0,-3 -0.188354,-4.943665 -1,-8c-1.308746,-4.928192 -1.946869,-9.010925 -3,-14c-1.904144,-9.020767 -3.179626,-15.976685 -4,-23c-1.281433,-10.970779 -2,-19 -2,-25c0,-12 1,-21 1,-29c0,-12 0,-19 0,-25c0,-9 0.605835,-14.01947 1,-18c0.502441,-5.074203 1.486267,-7.823746 2,-10c0.68927,-2.919746 0,-4 0,-5c0,-1 0,-2 0,-3c0,0 0.076111,-0.617317 1,-1c1.306549,-0.541199 3,-1 7,-1c3,0 8,0 11,0c4,0 10,1 15,1c4,0 8,0 13,0c2,0 4,0 5,0c0,0 1,1 1,1c0,1 -1.148041,2.228363 0,5c0.541199,1.306564 0.503784,3.907791 0,8c-0.488739,3.970032 0,8 0,15c0,5 0,10 0,18c0,6 0.499237,10.958466 1,20c0.276489,4.992355 1.284729,10.92485 3,18c1.201385,4.955475 0.761383,9.044678 2,15c0.8396,4.036713 1.691254,7.071793 3,12c0.811646,3.056335 0.847229,6.041321 2,10c0.884125,3.036163 1.458801,4.693436 2,6c0.765381,1.847763 0,2 0,3c0,0 0,1 0,1c1,1 2,1 4,2c4,2 7.076904,2.731445 11,4c5.123962,1.65686 10.041321,2.847229 14,4c6.072327,1.76828 10.963287,2.1604 15,3c5.955322,1.238617 9.025818,0.679626 11,1c3.121429,0.506531 4,1 4,1c0,0 0.458801,-0.306549 1,1c1.913422,4.619385 0.60025,8.096863 2,13c2.345428,8.215759 5.623505,13.246124 9,18c4.522614,6.367554 7,9 10,13c3,4 4,6 5,7c1,1 1,1 1,1c1,-1 1.458801,-3.693451 2,-5c0.765381,-1.847748 1.486267,-3.823761 2,-6c0.459503,-1.946503 1.540497,-5.053497 2,-7c0.513733,-2.176239 2.493469,-5.878571 3,-9c0.800903,-4.935425 0,-10 0,-21c0,-7 0,-15 0,-29c0,-8 0.275238,-18.022385 -1,-32c-0.822754,-9.017929 -1.356171,-18.099991 -4,-33c-1.610748,-9.077744 -3.069916,-16.989441 -5,-30c-1.037628,-6.994522 -0.276733,-13.098969 -2,-23c-0.707001,-4.062035 -1,-8 -1,-14c0,-3 0,-5 0,-8c0,-2 0,-4 0,-6c0,-2 0,-3 0,-4c0,-1 0,-1 0,-1c1,0 0.292908,-1.292892 1,-2c0.707092,-0.707108 1.692535,-1.186005 3,-3c0.826904,-1.14727 1.714111,-2.211678 4,-5c1.793182,-2.18734 3.410919,-3.692383 8,-7c1.813995,-1.307449 4,-3 6,-5c2,-2 3.309998,-2.337494 6,-4c1.203003,-0.7435 1,-1 3,-2c0,0 1,-1 3,-1c1,0 2,0 5,0c1,0 2.173096,0.85273 3,2c1.307465,1.813995 2,3 3,7c1,4 2.499023,7.953323 3,16c0.372833,5.988403 0,11 0,21c0,7 -1.139648,12.977562 -3,25c-1.081299,6.9879 -2.498749,13.946716 -3,21c-0.638,8.977356 -1.74231,14.03067 -1,23c0.501709,6.062042 1,11 1,20c0,7 1.069824,11.988785 2,18c1.081299,6.9879 1.847229,11.041321 3,15c0.884125,3.036163 1.839813,5.012909 2,6c0.506531,3.121445 1.2565,4.796997 2,6c1.662506,2.689987 2,5 3,7c1,2 1.458801,2.693436 2,4c0.765381,1.847763 0.234619,3.152252 1,5c0.541199,1.306549 1.61731,2.076111 2,3c0.541199,1.306549 1,1 2,2c1,1 2.852722,1.173096 4,2c1.813995,1.307465 5.012909,1.839813 6,2c3.121429,0.506531 4.186005,1.692535 6,3c1.147278,0.826904 3,2 4,3c2,2 3.149353,3.474274 4,4c1.9021,1.175568 2,2 3,3c0,0 1,0 1,0c0,0 0,1 0,1c1,0 1.292908,0.707092 2,0c0.707092,-0.707092 2,-1 3,-2c1,-1 2,-2 3,-3c1,-1 2.458801,-1.693451 3,-3c0.38269,-0.923889 1,-2 1,-2c0,0 0,-1 0,-2c0,-1 -0.486267,-2.823761 -1,-5c-0.459534,-1.946503 0.320374,-5.025818 0,-7c-0.506531,-3.121445 -1.511292,-6.029968 -2,-10c-0.503784,-4.092209 -2.33197,-9.229355 -4,-13c-1.458618,-3.297333 -4.115845,-8.963837 -5,-12c-1.152771,-3.958679 -3,-9 -4,-12c-1,-3 -1.31073,-5.080246 -2,-8c-0.513733,-2.176254 -1,-4 -1,-6c0,-2 -0.459503,-4.053497 0,-6c0.513733,-2.176254 1.486267,-2.823746 2,-5c0.229736,-0.973251 1,-2 2,-4c1,-2 1.692566,-3.186005 3,-5c1.653809,-2.29454 3.418884,-3.418854 5,-5c1.581116,-1.581146 3,-2 4,-3c0,0 -0.307434,1.186005 1,3c0.826904,1.147263 1.789856,5.07843 3,8c0.855713,2.065857 3,8 4,12c1,4 2.497559,10.925797 3,16c0.492676,4.975662 1,13 1,18c0,5 1,11 1,15c0,4 0.493469,8.878555 1,12c0.48053,2.961258 1.458801,6.693451 2,8c1.148071,2.771637 1,5 2,6c1,1 1,2 1,2c1,2 1.486267,2.823761 2,5c0.229736,0.973236 1.144287,4.934143 2,7c1.210144,2.92157 2.144287,6.934143 3,9c1.210144,2.92157 1.789856,7.07843 3,10c0.855713,2.065857 1.540466,7.053497 2,9c0.513733,2.176239 2,6 2,7c0,2 1,3 1,4c0,1 1,1 1,1c0,0 0,0 1,-1c1,-1 3.152222,-1.234619 5,-2c1.30658,-0.541199 7.053528,-2.540497 9,-3c2.17627,-0.513733 4.026733,-0.770233 5,-1c2.17627,-0.513733 2,-1 2,-1c0,0 1,-1 1,-1l0,0l0,-1" id="svg_1" fill-opacity="null" stroke-opacity="null" stroke-width="1.5" stroke="#000" fill="none"/>
 </g>
</svg>